<?xml version="1.0" encoding="utf-8"?>
<!-- Generator: Adobe Illustrator 16.0.0, SVG Export Plug-In . SVG Version: 6.00 Build 0)  -->
<!DOCTYPE svg PUBLIC "-//W3C//DTD SVG 1.1//EN" "http://www.w3.org/Graphics/SVG/1.1/DTD/svg11.dtd">
<svg version="1.1" id="Layer_1" xmlns="http://www.w3.org/2000/svg" xmlns:xlink="http://www.w3.org/1999/xlink" x="0px" y="0px"
	 width="50px" height="50px" viewBox="0 0 50 50" enable-background="new 0 0 50 50" xml:space="preserve">
<g display="none">
	<path display="inline" fill="#E2E2E1" d="M6.279,33.198c0-2.173-0.654-3.84-1.964-4.994C3.52,27.497,2.382,26.939,0.9,26.525
		v-3.132c1.672-0.568,2.854-1.196,3.542-1.885c1.224-1.191,1.836-3.012,1.836-5.459V9.118c0-0.88,0.147-1.801,0.44-2.767
		C7.235,4.68,8.112,3.352,9.351,2.368c1.135-0.896,2.467-1.493,4-1.785c0.928-0.189,2.261-0.293,4-0.311v4.137
		c-1.424,0.31-2.391,0.724-2.906,1.241c-0.788,0.793-1.182,2.178-1.182,4.159v5.995c0,1.926-0.258,3.458-0.775,4.597
		c-0.88,1.911-2.605,3.461-5.174,4.648c2.329,0.949,3.893,2.051,4.695,3.307c0.803,1.258,1.22,2.997,1.254,5.217v6.535
		c0,1.911,0.462,3.29,1.389,4.135c0.513,0.498,1.413,0.938,2.698,1.317v4.139l-1.833-0.053c-2.459-0.068-4.615-0.807-6.462-2.213
		c-1.851-1.404-2.776-3.452-2.776-6.144V33.198z"/>
	<path display="inline" fill="#E2E2E1" d="M32.497,49.699v-4.139c1.295-0.379,2.2-0.828,2.717-1.347
		c0.879-0.86,1.337-2.228,1.371-4.105v-6.535c0-2.444,0.477-4.257,1.428-5.436c0.95-1.183,2.465-2.208,4.542-3.088
		c-2.266-1.099-3.829-2.354-4.686-3.756c-0.855-1.404-1.284-3.234-1.284-5.488V9.81c0-1.911-0.306-3.212-0.918-3.899
		C35.055,5.221,34,4.719,32.497,4.409V0.272c1.729,0.018,3.061,0.121,3.995,0.311c1.537,0.292,2.885,0.89,4.043,1.785
		c1.159,0.896,1.962,2.001,2.411,3.312c0.449,1.309,0.674,2.454,0.674,3.438v6.931c0,2.466,0.56,4.275,1.681,5.431
		c0.69,0.689,1.923,1.328,3.699,1.913v3.132c-1.465,0.414-2.578,0.948-3.338,1.604c-1.361,1.171-2.042,2.859-2.042,5.068v8.092
		c0,2.621-0.909,4.653-2.724,6.093c-1.813,1.439-4,2.195-6.557,2.264L32.497,49.699z"/>
</g>
<path display="none" fill="#E2E2E1" d="M10,36.15c-4.971,0-9-4.18-9-9.15V11c0-4.971,4.029-9,9-9h30c4.971,0,9,4.029,9,9v16
	c0,4.971-4.029,9-9,9H25v14L10,36.15z"/>
<path display="none" fill="#E2E2E1" d="M110,27c0,4.971-4.029,9-9,9H86H71c-4.971,0-9-4.029-9-9V11c0-4.971,4.029-9,9-9h30
	c4.971,0,9,4.029,9,9V27z"/>
<g display="none">
	<rect x="-13" y="8" display="inline" fill="#E2E2E1" width="9" height="7"/>
	<polygon display="inline" fill="#E2E2E1" points="-8.5,45 -13,38 -4,38 	"/>
	<rect x="-13" y="17" display="inline" fill="#E2E2E1" width="9" height="19"/>
</g>
<g>
	
		<rect x="3.504" y="5.767" transform="matrix(0.7071 -0.7071 0.7071 0.7071 -4.7131 10.2104)" fill="#E2E2E1" width="12.927" height="10.055"/>
	<polygon fill="#E2E2E1" points="43.993,44.818 32.313,42.278 41.454,33.138 	"/>
	
		<rect x="18.739" y="12.384" transform="matrix(0.7071 -0.7071 0.7071 0.7071 -11.0233 25.4451)" fill="#E2E2E1" width="12.928" height="27.29"/>
</g>
</svg>
